<svg width="25" height="25" viewBox="0 0 25 25" fill="none" xmlns="http://www.w3.org/2000/svg">
<path d="M17.7083 14.5833C17.9846 14.5833 18.2496 14.4736 18.4449 14.2782C18.6403 14.0829 18.75 13.8179 18.75 13.5417C18.75 13.2654 18.6403 13.0004 18.4449 12.8051C18.2496 12.6097 17.9846 12.5 17.7083 12.5C17.4321 12.5 17.1671 12.6097 16.9718 12.8051C16.7764 13.0004 16.6667 13.2654 16.6667 13.5417C16.6667 13.8179 16.7764 14.0829 16.9718 14.2782C17.1671 14.4736 17.4321 14.5833 17.7083 14.5833ZM17.7083 18.75C17.9846 18.75 18.2496 18.6403 18.4449 18.4449C18.6403 18.2496 18.75 17.9846 18.75 17.7083C18.75 17.4321 18.6403 17.1671 18.4449 16.9718C18.2496 16.7764 17.9846 16.6667 17.7083 16.6667C17.4321 16.6667 17.1671 16.7764 16.9718 16.9718C16.7764 17.1671 16.6667 17.4321 16.6667 17.7083C16.6667 17.9846 16.7764 18.2496 16.9718 18.4449C17.1671 18.6403 17.4321 18.75 17.7083 18.75ZM13.5417 13.5417C13.5417 13.8179 13.4319 14.0829 13.2366 14.2782C13.0412 14.4736 12.7763 14.5833 12.5 14.5833C12.2237 14.5833 11.9588 14.4736 11.7634 14.2782C11.5681 14.0829 11.4583 13.8179 11.4583 13.5417C11.4583 13.2654 11.5681 13.0004 11.7634 12.8051C11.9588 12.6097 12.2237 12.5 12.5 12.5C12.7763 12.5 13.0412 12.6097 13.2366 12.8051C13.4319 13.0004 13.5417 13.2654 13.5417 13.5417ZM13.5417 17.7083C13.5417 17.9846 13.4319 18.2496 13.2366 18.4449C13.0412 18.6403 12.7763 18.75 12.5 18.75C12.2237 18.75 11.9588 18.6403 11.7634 18.4449C11.5681 18.2496 11.4583 17.9846 11.4583 17.7083C11.4583 17.4321 11.5681 17.1671 11.7634 16.9718C11.9588 16.7764 12.2237 16.6667 12.5 16.6667C12.7763 16.6667 13.0412 16.7764 13.2366 16.9718C13.4319 17.1671 13.5417 17.4321 13.5417 17.7083ZM7.29167 14.5833C7.56793 14.5833 7.83289 14.4736 8.02824 14.2782C8.22359 14.0829 8.33333 13.8179 8.33333 13.5417C8.33333 13.2654 8.22359 13.0004 8.02824 12.8051C7.83289 12.6097 7.56793 12.5 7.29167 12.5C7.0154 12.5 6.75045 12.6097 6.5551 12.8051C6.35975 13.0004 6.25 13.2654 6.25 13.5417C6.25 13.8179 6.35975 14.0829 6.5551 14.2782C6.75045 14.4736 7.0154 14.5833 7.29167 14.5833ZM7.29167 18.75C7.56793 18.75 7.83289 18.6403 8.02824 18.4449C8.22359 18.2496 8.33333 17.9846 8.33333 17.7083C8.33333 17.4321 8.22359 17.1671 8.02824 16.9718C7.83289 16.7764 7.56793 16.6667 7.29167 16.6667C7.0154 16.6667 6.75045 16.7764 6.5551 16.9718C6.35975 17.1671 6.25 17.4321 6.25 17.7083C6.25 17.9846 6.35975 18.2496 6.5551 18.4449C6.75045 18.6403 7.0154 18.75 7.29167 18.75Z" fill="#242E3A"/>
<path fill-rule="evenodd" clip-rule="evenodd" d="M7.29183 1.823C7.49903 1.823 7.69774 1.90531 7.84426 2.05182C7.99077 2.19833 8.07308 2.39705 8.07308 2.60425V3.39904C8.76266 3.3855 9.52204 3.3855 10.3575 3.3855H14.6418C15.4783 3.3855 16.2377 3.3855 16.9272 3.39904V2.60425C16.9272 2.39705 17.0096 2.19833 17.1561 2.05182C17.3026 1.90531 17.5013 1.823 17.7085 1.823C17.9157 1.823 18.1144 1.90531 18.2609 2.05182C18.4074 2.19833 18.4897 2.39705 18.4897 2.60425V3.46571C18.7606 3.48654 19.0168 3.51258 19.2595 3.54487C20.4804 3.70946 21.4689 4.05529 22.2491 4.83446C23.0283 5.61466 23.3741 6.60321 23.5387 7.82404C23.6981 9.01154 23.6981 10.5272 23.6981 12.4417V14.6417C23.6981 16.5563 23.6981 18.073 23.5387 19.2595C23.3741 20.4803 23.0283 21.4688 22.2491 22.249C21.4689 23.0282 20.4804 23.374 19.2595 23.5386C18.072 23.698 16.5564 23.698 14.6418 23.698H10.3585C8.44391 23.698 6.92725 23.698 5.74079 23.5386C4.51995 23.374 3.53141 23.0282 2.7512 22.249C1.97204 21.4688 1.6262 20.4803 1.46162 19.2595C1.30225 18.072 1.30225 16.5563 1.30225 14.6417V12.4417C1.30225 10.5272 1.30225 9.0105 1.46162 7.82404C1.6262 6.60321 1.97204 5.61466 2.7512 4.83446C3.53141 4.05529 4.51995 3.70946 5.74079 3.54487C5.9835 3.51258 6.24079 3.48654 6.51058 3.46571V2.60425C6.51058 2.39705 6.59289 2.19833 6.7394 2.05182C6.88592 1.90531 7.08463 1.823 7.29183 1.823ZM5.94808 5.09383C4.9012 5.23446 4.29704 5.49904 3.85641 5.93966C3.41579 6.38029 3.1512 6.98446 3.01058 8.03237C2.98662 8.20946 2.96683 8.39696 2.95016 8.59383H22.0502C22.0335 8.39591 22.0137 8.20946 21.9897 8.03133C21.8491 6.98446 21.5845 6.38029 21.1439 5.93966C20.7033 5.49904 20.0991 5.23446 19.0512 5.09383C17.9814 4.95008 16.57 4.948 14.5835 4.948H10.4168C8.43037 4.948 7.01996 4.95008 5.94808 5.09383ZM2.86475 12.5001C2.86475 11.6105 2.86475 10.8365 2.87829 10.1563H22.122C22.1356 10.8365 22.1356 11.6105 22.1356 12.5001V14.5834C22.1356 16.5699 22.1335 17.9813 21.9897 19.0522C21.8491 20.099 21.5845 20.7032 21.1439 21.1438C20.7033 21.5845 20.0991 21.849 19.0512 21.9897C17.9814 22.1334 16.57 22.1355 14.5835 22.1355H10.4168C8.43037 22.1355 7.01996 22.1334 5.94808 21.9897C4.9012 21.849 4.29704 21.5845 3.85641 21.1438C3.41579 20.7032 3.1512 20.099 3.01058 19.0511C2.86683 17.9813 2.86475 16.5699 2.86475 14.5834V12.5001Z" fill="#242E3A"/>
</svg>
