<svg width="25" height="25" viewBox="0 0 25 25" fill="none" xmlns="http://www.w3.org/2000/svg">
<g clip-path="url(#clip0_779_80)">
<path d="M12.5002 2.08337C18.2533 2.08337 22.9168 6.74692 22.9168 12.5C22.9168 18.2532 18.2533 22.9167 12.5002 22.9167C6.74704 22.9167 2.0835 18.2532 2.0835 12.5C2.0835 6.74692 6.74704 2.08337 12.5002 2.08337ZM12.5002 4.16671C10.29 4.16671 8.17041 5.04468 6.60761 6.60748C5.0448 8.17029 4.16683 10.2899 4.16683 12.5C4.16683 14.7102 5.0448 16.8298 6.60761 18.3926C8.17041 19.9554 10.29 20.8334 12.5002 20.8334C14.7103 20.8334 16.8299 19.9554 18.3927 18.3926C19.9555 16.8298 20.8335 14.7102 20.8335 12.5C20.8335 10.2899 19.9555 8.17029 18.3927 6.60748C16.8299 5.04468 14.7103 4.16671 12.5002 4.16671ZM12.5002 6.25004C12.7553 6.25007 13.0016 6.34375 13.1922 6.51329C13.3829 6.68283 13.5047 6.91645 13.5345 7.16983L13.5418 7.29171V12.0688L16.3616 14.8886C16.5484 15.076 16.6569 15.3276 16.665 15.5921C16.6731 15.8566 16.5801 16.1143 16.4051 16.3128C16.2301 16.5113 15.986 16.6358 15.7226 16.6609C15.4591 16.686 15.196 16.6098 14.9866 16.448L14.8887 16.3615L11.7637 13.2365C11.6018 13.0745 11.4978 12.8636 11.4679 12.6365L11.4585 12.5V7.29171C11.4585 7.01544 11.5682 6.75049 11.7636 6.55514C11.9589 6.35979 12.2239 6.25004 12.5002 6.25004Z" fill="black"/>
</g>
<defs>
<clipPath id="clip0_779_80">
<rect width="25" height="25" fill="white"/>
</clipPath>
</defs>
</svg>
