<svg width="25" height="25" viewBox="0 0 25 25" fill="none" xmlns="http://www.w3.org/2000/svg">
<path d="M19.6814 18.1188L14.1579 23.6438C13.9403 23.8616 13.6818 24.0344 13.3974 24.1522C13.1129 24.2701 12.808 24.3308 12.5001 24.3308C12.1922 24.3308 11.8873 24.2701 11.6029 24.1522C11.3184 24.0344 11.06 23.8616 10.8423 23.6438L5.31887 18.1188C4.37572 17.1757 3.62754 16.0562 3.11707 14.824C2.6066 13.5918 2.34382 12.2711 2.34375 10.9373C2.34368 9.60357 2.60631 8.28286 3.11665 7.0506C3.62698 5.81835 4.37504 4.69868 5.31809 3.75552C6.26115 2.81236 7.38074 2.06419 8.61294 1.55371C9.84514 1.04324 11.1658 0.780468 12.4996 0.780396C13.8333 0.780323 15.154 1.04295 16.3863 1.55329C17.6185 2.06363 18.7382 2.81168 19.6814 3.75474C20.6246 4.69785 21.3728 5.81753 21.8833 7.04983C22.3938 8.28213 22.6565 9.60292 22.6565 10.9368C22.6565 12.2706 22.3938 13.5914 21.8833 14.8237C21.3728 16.056 20.6246 17.1757 19.6814 18.1188ZM18.0251 5.41255C16.5598 3.94723 14.5724 3.12246 12.5001 3.12246C10.4278 3.12246 8.44044 3.94567 6.97512 5.41099C5.5098 6.87631 4.68659 8.86371 4.68659 10.936C4.68659 13.0083 5.5098 14.9957 6.97512 16.461L12.5001 21.9844L18.0251 16.4626C18.7508 15.7371 19.3264 14.8757 19.7192 13.9277C20.1119 12.9798 20.3141 11.9637 20.3141 10.9376C20.3141 9.91143 20.1119 8.89535 19.7192 7.94736C19.3264 6.99937 18.7508 6.13803 18.0251 5.41255ZM12.5001 14.0625C12.084 14.072 11.6701 13.9981 11.2829 13.8454C10.8957 13.6927 10.5429 13.4641 10.2452 13.1732C9.94748 12.8822 9.71092 12.5347 9.54938 12.1511C9.38784 11.7674 9.30458 11.3554 9.30447 10.9391C9.30437 10.5229 9.38743 10.1108 9.54878 9.72706C9.71012 9.34334 9.94651 8.99573 10.244 8.70462C10.5416 8.41352 10.8943 8.18479 11.2814 8.03187C11.6686 7.87894 12.0824 7.80491 12.4986 7.81411C13.3151 7.83217 14.0921 8.16915 14.6632 8.75292C15.2344 9.3367 15.5543 10.1209 15.5545 10.9376C15.5547 11.7543 15.2352 12.5386 14.6643 13.1227C14.0934 13.7067 13.3166 14.0441 12.5001 14.0625Z" fill="#242E3A"/>
</svg>
