<svg width="50" height="50" viewBox="0 0 50 50" fill="none" xmlns="http://www.w3.org/2000/svg">
<path d="M39.3623 36.2374L28.3154 47.2874C27.8801 47.7229 27.3632 48.0685 26.7943 48.3043C26.2254 48.54 25.6156 48.6614 24.9998 48.6614C24.3839 48.6614 23.7741 48.54 23.2052 48.3043C22.6363 48.0685 22.1194 47.7229 21.6841 47.2874L10.6373 36.2374C8.75094 34.3512 7.2546 32.1121 6.23365 29.6477C5.21271 27.1833 4.68716 24.5419 4.68701 21.8744C4.68687 19.2069 5.21213 16.5655 6.2328 14.101C7.25348 11.6365 8.74959 9.39711 10.6357 7.51079C12.5218 5.62448 14.761 4.12813 17.2254 3.10719C19.6898 2.08624 22.3311 1.56069 24.9987 1.56055C27.6662 1.5604 30.3076 2.08566 32.7721 3.10634C35.2366 4.12702 37.4759 5.62312 39.3623 7.50923C41.2487 9.39546 42.7452 11.6348 43.7662 14.0994C44.7871 16.564 45.3126 19.2056 45.3126 21.8733C45.3126 24.541 44.7871 27.1826 43.7662 29.6472C42.7452 32.1118 41.2487 34.3511 39.3623 36.2374ZM36.0498 10.8249C33.1191 7.89421 29.1443 6.24467 24.9998 6.24467C20.8552 6.24467 16.8804 7.89109 13.9498 10.8217C11.0191 13.7524 9.3727 17.7272 9.3727 21.8717C9.3727 26.0163 11.0191 29.9911 13.9498 32.9217L24.9998 43.9686L36.0498 32.9249C37.5011 31.4739 38.6524 29.7512 39.4379 27.8552C40.2234 25.9593 40.6277 23.9271 40.6277 21.8749C40.6277 19.8226 40.2234 17.7905 39.4379 15.8945C38.6524 13.9985 37.5011 12.2758 36.0498 10.8249ZM24.9998 28.1249C24.1674 28.1437 23.3398 27.996 22.5653 27.6906C21.7908 27.3851 21.0852 26.928 20.4898 26.3461C19.8945 25.7642 19.4214 25.0692 19.0983 24.3019C18.7752 23.5346 18.6087 22.7105 18.6085 21.878C18.6083 21.0455 18.7744 20.2213 19.0971 19.4539C19.4198 18.6864 19.8925 17.9912 20.4876 17.409C21.0827 16.8268 21.7881 16.3693 22.5624 16.0635C23.3367 15.7576 24.1643 15.6096 24.9966 15.628C26.6296 15.6641 28.1836 16.3381 29.3259 17.5056C30.4682 18.6731 31.1081 20.2415 31.1085 21.8749C31.1089 23.5083 30.4698 25.077 29.3281 26.2451C28.1864 27.4132 26.6327 28.0879 24.9998 28.1249Z" fill="white"/>
</svg>
