<svg width="25" height="25" viewBox="0 0 25 25" fill="none" xmlns="http://www.w3.org/2000/svg">
<g clip-path="url(#clip0_779_72)">
<path d="M17.1875 1.5625C17.6019 1.5625 17.9993 1.72712 18.2924 2.02015C18.5854 2.31317 18.75 2.7106 18.75 3.125V21.875C18.75 22.2894 18.5854 22.6868 18.2924 22.9799C17.9993 23.2729 17.6019 23.4375 17.1875 23.4375H7.8125C7.3981 23.4375 7.00067 23.2729 6.70765 22.9799C6.41462 22.6868 6.25 22.2894 6.25 21.875V3.125C6.25 2.7106 6.41462 2.31317 6.70765 2.02015C7.00067 1.72712 7.3981 1.5625 7.8125 1.5625H17.1875ZM7.8125 0C6.9837 0 6.18884 0.32924 5.60279 0.915291C5.01674 1.50134 4.6875 2.2962 4.6875 3.125V21.875C4.6875 22.7038 5.01674 23.4987 5.60279 24.0847C6.18884 24.6708 6.9837 25 7.8125 25H17.1875C18.0163 25 18.8112 24.6708 19.3972 24.0847C19.9833 23.4987 20.3125 22.7038 20.3125 21.875V3.125C20.3125 2.2962 19.9833 1.50134 19.3972 0.915291C18.8112 0.32924 18.0163 0 17.1875 0L7.8125 0Z" fill="#242E3A"/>
<path d="M12.5 21.875C12.9144 21.875 13.3118 21.7104 13.6049 21.4174C13.8979 21.1243 14.0625 20.7269 14.0625 20.3125C14.0625 19.8981 13.8979 19.5007 13.6049 19.2076C13.3118 18.9146 12.9144 18.75 12.5 18.75C12.0856 18.75 11.6882 18.9146 11.3951 19.2076C11.1021 19.5007 10.9375 19.8981 10.9375 20.3125C10.9375 20.7269 11.1021 21.1243 11.3951 21.4174C11.6882 21.7104 12.0856 21.875 12.5 21.875Z" fill="#242E3A"/>
</g>
<defs>
<clipPath id="clip0_779_72">
<rect width="25" height="25" fill="white"/>
</clipPath>
</defs>
</svg>
