<svg width="50" height="50" viewBox="0 0 50 50" fill="none" xmlns="http://www.w3.org/2000/svg">
<g clip-path="url(#clip0_806_1332)">
<path d="M34.375 3.125C35.2038 3.125 35.9987 3.45424 36.5847 4.04029C37.1708 4.62634 37.5 5.4212 37.5 6.25V43.75C37.5 44.5788 37.1708 45.3737 36.5847 45.9597C35.9987 46.5458 35.2038 46.875 34.375 46.875H15.625C14.7962 46.875 14.0013 46.5458 13.4153 45.9597C12.8292 45.3737 12.5 44.5788 12.5 43.75V6.25C12.5 5.4212 12.8292 4.62634 13.4153 4.04029C14.0013 3.45424 14.7962 3.125 15.625 3.125H34.375ZM15.625 0C13.9674 0 12.3777 0.65848 11.2056 1.83058C10.0335 3.00269 9.375 4.5924 9.375 6.25V43.75C9.375 45.4076 10.0335 46.9973 11.2056 48.1694C12.3777 49.3415 13.9674 50 15.625 50H34.375C36.0326 50 37.6223 49.3415 38.7944 48.1694C39.9665 46.9973 40.625 45.4076 40.625 43.75V6.25C40.625 4.5924 39.9665 3.00269 38.7944 1.83058C37.6223 0.65848 36.0326 0 34.375 0L15.625 0Z" fill="white"/>
<path d="M25 43.75C25.8288 43.75 26.6237 43.4208 27.2097 42.8347C27.7958 42.2487 28.125 41.4538 28.125 40.625C28.125 39.7962 27.7958 39.0013 27.2097 38.4153C26.6237 37.8292 25.8288 37.5 25 37.5C24.1712 37.5 23.3763 37.8292 22.7903 38.4153C22.2042 39.0013 21.875 39.7962 21.875 40.625C21.875 41.4538 22.2042 42.2487 22.7903 42.8347C23.3763 43.4208 24.1712 43.75 25 43.75Z" fill="white"/>
</g>
<defs>
<clipPath id="clip0_806_1332">
<rect width="50" height="50" fill="white"/>
</clipPath>
</defs>
</svg>
