<svg width="25" height="25" viewBox="0 0 25 25" fill="none" xmlns="http://www.w3.org/2000/svg">
<path d="M18.7499 14.2856C19.4603 14.2856 20.1416 14.5679 20.6439 15.0702C21.1462 15.5725 21.4284 16.2538 21.4284 16.9642V17.6026C21.4284 20.7964 17.6695 23.2142 12.4999 23.2142C7.33022 23.2142 3.57129 20.9223 3.57129 17.6026V16.9642C3.57129 16.2538 3.85349 15.5725 4.35582 15.0702C4.85815 14.5679 5.53946 14.2856 6.24986 14.2856H18.7499ZM18.7499 15.6249H6.24986C5.91707 15.6249 5.5962 15.7488 5.34976 15.9725C5.10333 16.1961 4.94899 16.5035 4.91682 16.8348L4.91057 16.9642V17.6026C4.91057 19.9901 7.93647 21.8749 12.4999 21.8749C16.8981 21.8749 19.9597 19.9955 20.0847 17.7464L20.0891 17.6026V16.9642C20.0892 16.6314 19.9653 16.3106 19.7416 16.0641C19.518 15.8177 19.2106 15.6634 18.8793 15.6312L18.7499 15.6249ZM12.4999 1.78564C13.2034 1.78564 13.9 1.92421 14.55 2.19343C15.1999 2.46265 15.7905 2.85726 16.2879 3.35472C16.7854 3.85217 17.18 4.44274 17.4492 5.0927C17.7184 5.74266 17.857 6.43928 17.857 7.14279C17.857 7.8463 17.7184 8.54292 17.4492 9.19288C17.18 9.84284 16.7854 10.4334 16.2879 10.9309C15.7905 11.4283 15.1999 11.8229 14.55 12.0921C13.9 12.3614 13.2034 12.4999 12.4999 12.4999C11.0791 12.4999 9.71645 11.9355 8.71179 10.9309C7.70713 9.9262 7.14272 8.56359 7.14272 7.14279C7.14272 5.72198 7.70713 4.35937 8.71179 3.35472C9.71645 2.35006 11.0791 1.78564 12.4999 1.78564ZM12.4999 3.12493C11.4343 3.12493 10.4123 3.54824 9.65881 4.30173C8.90531 5.05523 8.482 6.07719 8.482 7.14279C8.482 8.20839 8.90531 9.23035 9.65881 9.98384C10.4123 10.7373 11.4343 11.1606 12.4999 11.1606C13.5655 11.1606 14.5874 10.7373 15.3409 9.98384C16.0944 9.23035 16.5177 8.20839 16.5177 7.14279C16.5177 6.07719 16.0944 5.05523 15.3409 4.30173C14.5874 3.54824 13.5655 3.12493 12.4999 3.12493Z" fill="#242E3A"/>
</svg>
